<?xml version="1.0" encoding="UTF-8"?>
<svg id="Layer_1" xmlns="http://www.w3.org/2000/svg" xmlns:xlink="http://www.w3.org/1999/xlink" version="1.1" viewBox="0 0 512 512">
  <!-- Generator: Adobe Illustrator 29.6.1, SVG Export Plug-In . SVG Version: 2.1.1 Build 9)  -->
  <defs>
    <style>
      .st0 {
        fill: url(#linear-gradient);
      }

      .st1 {
        fill: none;
        stroke: #fff;
        stroke-width: 2px;
      }
    </style>
    <linearGradient id="linear-gradient" x1="48.96" y1="256" x2="463.04" y2="256" gradientUnits="userSpaceOnUse">
      <stop offset="0" stop-color="#bb186c"/>
      <stop offset="1" stop-color="#70186c"/>
    </linearGradient>
  </defs>
  <rect class="st0" x="48.96" y="48.96" width="414.09" height="414.09" rx="89.17" ry="89.17"/>
  <path class="st1" d="M246.75,243.09H111.62v-.4h-.8v-.4h-.4v-.4h-.4v-.4h-.4v-.4h-.4v-.4h-.4v-.8h-.4v-1.21h-.4v-115.02l.4-.4h0v-.8l.4-.4h0v-.4l.4-.4h0v-.4l.4-.4h0l.4-.4h0l.4-.4h.4l.4-.4h0l.4-.4h.8l.4-.4h133.52v.4h.8v.4h.8v.4h.4v.4h.4v.4h.4v.4h.4v.8h.4v.8h.4v117.03h0l-.4.4v.4h0l-.4.4v.4h0l-.4.4h0l-.4.4h0l-.4.4h-.4l-.4.4h-.4l-.4.4h0"/>
  <path class="st1" d="M399.98,231.02h-134.73v-.4h-.8v-.4h-.4v-.4h-.4v-.4h-.4v-.4h-.4v-.4h-.4v-.8h-.4v-1.21h-.4v-102.96l.4-.4h0v-.8l.4-.4h0v-.4l.4-.4h0l.4-.4h0v-.4l.4-.4h0l.4-.4h.4l.4-.4h0l.4-.4h.8l.4-.4h133.12v.4h1.21v.4h.8v.4h.4v.4h.4v.4h.4v.4h.4v.8h.4v1.21h.4v103.76h0l-.4.4v.8h0l-.4.4v.4h0l-.4.4h0l-.4.4h0l-.4.4h0l-.4.4h-.4l-.4.4h-.4l-.4.4h0"/>
  <path class="st1" d="M240.32,233.03v-104.57h-121.86l-.4.4v104.16h122.26"/>
  <path class="st1" d="M393.95,220.97v-92.5h-121.86l-.4.4v92.1h122.26"/>
  <path class="st1" d="M161.49,212.52h-3.22v-.4h-.8v-.4h-.8v-.4h-.4v-.4h-.4v-.4h-.4v-.8h-.4v-.8h-.4v-55.9l.4-.4h0v-.8l.4-.4h0l.4-.4h0l.4-.4h0l.4-.4h0l.4-.4h.4l.4-.4h.4l.4-.4h2.82v.4h.8v.4h.8v.4h.8v.4h.8v.4h.4v.4h.8v.4h.8v.4h.4v.4h.8v.4h.8v.4h.8v.4h.4v.4h.8v.4h.8v.4h.4v.4h.8v.4h.8v.4h.8v.4h.4v.4h.8v.4h.8v.4h.4v.4h.8v.4h.8v.4h.8v.4h.4v.4h.8v.4h.8v.4h.4v.4h.8v.4h.8v.4h.8v.4h.4v.4h.8v.4h.8v.4h.4v.4h.8v.4h.8v.4h.8v.4h.4v.4h.8v.4h.8v.4h.4v.4h.8v.4h.8v.4h.8v.4h.4v.4h.8v.4h.8v.4h.4v.4h.8v.4h.8v.4h.8v.4h.4v.4h.8v.4h.8v.4h.4v.4h.8v.4h.8v.4h.4v.4h.8v.4h.8v.4h.8v.4h.4v.4h.8v.4h.8v.4h.4v.4h.8v.4h.4v.4h.4v.4h.4v.4h.4v.8h.4v4.02h0l-.4.4v.4h0l-.4.4h0l-.4.4h0l-.4.4h0l-.4.4h-.4l-.4.4h-.4l-.4.4h0l-.4.4h-.4l-.4.4h-.4l-.4.4h0l-.4.4h-.4l-.4.4h-.4l-.4.4h0l-.4.4h-.4l-.4.4h-.4l-.4.4h-.4l-.4.4h0l-.4.4h-.4l-.4.4h-.4l-.4.4h0l-.4.4h-.4l-.4.4h-.4l-.4.4h-.4l-.4.4h0l-.4.4h-.4l-.4.4h-.4l-.4.4h0l-.4.4h-.4l-.4.4h-.4l-.4.4h0l-.4.4h-.4l-.4.4h-.4l-.4.4h-.4l-.4.4h0l-.4.4h-.4l-.4.4h-.4l-.4.4h0l-.4.4h-.4l-.4.4h-.4l-.4.4h-.4l-.4.4h0l-.4.4h-.4l-.4.4h-.4l-.4.4h0l-.4.4h-.4l-.4.4h-.4l-.4.4h-.4l-.4.4h0l-.4.4h-.4l-.4.4h-.4l-.4.4h0l-.4.4h-.4l-.4.4h-.4l-.4.4h-.4l-.4.4h0l-.4.4h-.4l-.4.4h-.4l-.4.4h0l-.4.4h-.4l-.4.4h-.4l-.4.4h-.4l-.4.4h0l-.4.4h-.4l-.4.4h-.4l-.4.4h0l-.4.4h-.4l-.4.4h-.4l-.4.4h0l-.4.4h-.4l-.4.4h-.4l-.4.4h-.4l-.4.4h-.4l-.4.4h0"/>
  <path class="st1" d="M165.51,198.85l.4-.4h0l.4-.4h.4l.4-.4h.4l.4-.4h0l.4-.4h.4l.4-.4h.4l.4-.4h.4l.4-.4h0l.4-.4h.4l.4-.4h.4l.4-.4h0l.4-.4h.4l.4-.4h.4l.4-.4h.4l.4-.4h0l.4-.4h.4l.4-.4h.4l.4-.4h0l.4-.4h.4l.4-.4h.4l.4-.4h.4l.4-.4h0l.4-.4h.4l.4-.4h.4l.4-.4h0l.4-.4h.4l.4-.4h.4l.4-.4h.4l.4-.4h0l.4-.4h.4l.4-.4h.4l.4-.4h0l.4-.4h.4l.4-.4h.4l.4-.4h.4l.4-.4h0l.4-.4h.4l.4-.4h.4l.4-.4h0l.4-.4h.4l.4-.4h.4l.4-.4h.4l.4-.4h0l.4-.4h.4l.4-.4h0v-.4h-.8v-.4h-.8v-.4h-.8v-.4h-.8v-.4h-.4v-.4h-.8v-.4h-.8v-.4h-.4v-.4h-.8v-.4h-.8v-.4h-.8v-.4h-.4v-.4h-.8v-.4h-.8v-.4h-.4v-.4h-.8v-.4h-.8v-.4h-.4v-.4h-.8v-.4h-.8v-.4h-.8v-.4h-.4v-.4h-.8v-.4h-.8v-.4h-.8v-.4h-.4v-.4h-.8v-.4h-.8v-.4h-.4v-.4h-.8v-.4h-.8v-.4h-.8v-.4h-.4v-.4h-.8v-.4h-.8v-.4h-.8v-.4h-.4v-.4h-.8v-.4h-.8v-.4h-.4v-.4h-.8v-.4h-.8v-.4h-.8v-.4h-.4v-.4h-.4l-.4.4v35.79h.8"/>
  <path class="st1" d="M309.89,254.35h-4.02v-.4h-2.01v-.4h-.4v-.4h-.4v-.4h-.4v-1.21h-.4v-6.03l.4-.4h0v-.8l.4-.4h0l.4-.4h0l.4-.4h.4l.4-.4h2.41l.4-.4h1.61v.4h2.82v.4h.8v.4h.4v.4h.4v1.21h.4v6.43h0l-.4.4v.8h0l-.4.4h0l-.4.4h-.4l-.4.4h-1.61l-.4.4h0"/>
  <path class="st1" d="M330.4,254.35h-5.63v-.4h-1.21v-.4h-.4v-.4h-.4v-.8h-.4v-1.21h-.4v-5.23l.4-.4h0v-.8l.4-.4h0l.4-.4h0l.4-.4h0l.4-.4h.4l.4-.4h2.41l.4-.4h1.61v.4h2.41v.4h.8v.4h.4v.4h.4v.8h.4v1.21h.4v4.42h0l-.4.4v1.61h0l-.4.4v.4h0l-.4.4h-.4l-.4.4h-1.21l-.4.4h0"/>
  <path class="st1" d="M349.71,254.35h-4.02v-.4h-2.01v-.4h-.4v-.4h-.4v-.4h-.4v-.8h-.4v-3.22h-.4v-.8l.4-.4h0v-2.41l.4-.4h0v-.4l.4-.4h0l.4-.4h0l.4-.4h.4l.4-.4h1.61l.4-.4h3.22v.4h2.01v.4h.4v.4h.4v.4h.4v.4h.4v1.21h.4v5.63h0l-.4.4v.8h0l-.4.4v.4h0l-.4.4h-.4l-.4.4h-1.61l-.4.4h0"/>
  <path class="st1" d="M368.21,254.35h-1.61v-.4h-2.82v-.4h-.8v-.4h-.4v-.8h-.4v-1.21h-.4v-5.23l.4-.4h0v-.8l.4-.4h0v-.4l.4-.4h0l.4-.4h.4l.4-.4h1.61l.4-.4h3.62v.4h2.01v.4h.4v.4h.4v.4h.4v.8h.4v2.01h.4v3.62h0l-.4.4v1.61h0l-.4.4h0l-.4.4h0l-.4.4h-.4l-.4.4h-2.82l-.4.4h0"/>
  <path class="st1" d="M401.99,253.95h-6.84v-.4h-3.62l-.4.4h-7.64v-.4h-.4v-.4h-.4v-.4h-.4v-1.21h-.4v-6.43l.4-.4h0v-.4l.4-.4h0l.4-.4h0l.4-.4h0l.4-.4h.8l.4-.4h14.88v.4h1.21v.4h.4v.4h.8v.4h.4v.8h.4v.8h.4v1.21h.4v4.83h0l-.4.4v.8h0l-.4.4h0l-.4.4h-.4l-.4.4h0"/>
  <path class="st1" d="M270.48,254.35h-5.63v-.4h-.8v-.4h-.8v-.4h-.4v-.8h-.4v-1.61h-.4v-4.02l.4-.4h0v-.8l.4-.4h0v-.4l.4-.4h0l.4-.4h0l.4-.4h0l.4-.4h.4l.4-.4h6.43v.4h.8v.4h.4v.4h.4v.4h.4v1.61h.4v5.23h0l-.4.4v1.21h0l-.4.4h0l-.4.4h-.4l-.4.4h-1.21l-.4.4h0"/>
  <path class="st1" d="M288.58,254.35h-2.01v-.4h-2.41v-.4h-.8v-.4h-.4v-.8h-.4v-1.21h-.4v-4.83l.4-.4h0v-.8l.4-.4h0v-.4l.4-.4h0l.4-.4h0l.4-.4h.4l.4-.4h6.84v.4h.8v.4h.4v.4h.4v.8h.4v2.01h.4v2.82h0l-.4.4v2.01h0l-.4.4v.4h0l-.4.4h0l-.4.4h-.4l-.4.4h-2.82l-.4.4h0"/>
  <path class="st1" d="M246.35,405.16H112.02v-.4h-.8v-.4h-.8v-.4h-.4v-.4h-.4v-.4h-.4v-.8h-.4v-.4h-.4v-1.21h-.4v-142.37l.4-.4h0v-.8l.4-.4h0v-.4l.4-.4h0l.4-.4h0l.4-.4h0l.4-.4h0l.4-.4h.4l.4-.4h.4l.4-.4h133.92v.4h.8v.4h.8v.4h.4v.4h.4v.4h.4v.4h.4v.8h.4v.8h.4v143.58h0l-.4.4v.4h0l-.4.4v.4h0l-.4.4h0l-.4.4h0l-.4.4h0l-.4.4h0l-.4.4h-.8l-.4.4h0"/>
  <path class="st1" d="M270.88,274.46h-6.03v-.4h-1.21v-.4h-.4v-.4h-.4v-.8h-.4v-1.61h-.4v-4.42l.4-.4h0v-.8l.4-.4h0v-.4l.4-.4h0l.4-.4h.4l.4-.4h.8l.4-.4h4.83v.4h1.21v.4h.8v.4h.4v.8h.4v.8h.4v6.43h0l-.4.4v.4h0l-.4.4h0l-.4.4h0l-.4.4h-.8l-.4.4h0"/>
  <path class="st1" d="M401.18,274.46h-6.03v-.4h-1.21v-.4h-.4v-.4h-.4v-.4h-.4v-1.21h-.4v-5.23l.4-.4h0v-.8l.4-.4h0v-.4l.4-.4h0l.4-.4h.4l.4-.4h.8l.4-.4h4.83v.4h1.21v.4h.8v.4h.4v.8h.4v1.61h.4v4.83h0l-.4.4v1.21h0l-.4.4h0l-.4.4h0l-.4.4h-.8l-.4.4h0"/>
  <path class="st1" d="M240.32,333.17v-69.58h-121.86l-.4.4v68.77h.4v.4h.4l.4-.4v.4h1.61l.4-.4h118.64v.4h.4"/>
  <path class="st1" d="M336.03,346.45h-9.65v-.4h-.8v-.4h-.4v-.4h-.4v-1.61h-.4v-7.24l.4-.4h0v-3.62l.4-.4h0v-1.61l.4-.4h0v-1.21l.4-.4h0v-.8l.4-.4h0v-.4l.4-.4h0v-.8l.4-.4h0l.4-.4h0v-.4l.4-.4h0v-.4l.4-.4h0v-.4l.4-.4h0l.4-.4h0v-.4l.4-.4h0l.4-.4h0l.4-.4h0v-.4l.4-.4h0l.4-.4h0l.4-.4h0l.4-.4h0l.4-.4h0l.4-.4h0l.4-.4h0l.4-.4h0l.4-.4h0l.4-.4h0l.4-.4h0l.4-.4h0l.4-.4h0l.4-.4h0l.4-.4h0l.4-.4h0l.4-.4h0l.4-.4h0l.4-.4h0l.4-.4h0l.4-.4h0l.4-.4h0l.4-.4h0l.4-.4h0l.4-.4h0l.4-.4h0l.4-.4h0l.4-.4h0l.4-.4h0l.4-.4h0l.4-.4h0l.4-.4h0l.4-.4h0l.4-.4h0l.4-.4h0v-.4l.4-.4h0l.4-.4h0v-.4l.4-.4h0l.4-.4h0v-.4l.4-.4h0v-.4l.4-.4h0v-.8l.4-.4h0v-1.21l.4-.4h0v-5.63h-.4v-2.01h-.4v-.8h-.4v-1.21h-.4v-.4h-.4v-.8h-.4v-.4h-.4v-.8h-.4v-.4h-.4v-.4h-.4v-.4h-.4v-.4h-.8v-.4h-.4v-.4h-.8v-.4h-.8v-.4h-.8v-.4h-.8v-.4h-1.21v-.4h-2.01v-.4h-5.23l-.4.4h-1.21l-.4.4h-.8l-.4.4h-.8l-.4.4h-.4l-.4.4h0l-.4.4h-.4l-.4.4h0l-.4.4h0l-.4.4h-.4l-.4.4v.4h0l-.4.4h0l-.4.4h0l-.4.4h0l-.4.4h0l-.4.4v.4h0l-.4.4v.4h0l-.4.4v.4h0l-.4.4v.4h0l-.4.4v.8h0l-.4.4v1.21h0l-.4.4v1.21h0l-.4.4v1.61h0l-.4.4v.4h0l-.4.4h0l-.4.4h-.8l-.4.4h-8.85v-.4h-1.21v-.4h-.4v-.4h-.4v-.4h-.4v-4.42l.4-.4h0v-1.21l.4-.4h0v-1.21l.4-.4h0v-.8l.4-.4h0v-.8l.4-.4h0v-.4l.4-.4h0v-.4l.4-.4h0v-.4l.4-.4h0v-.4l.4-.4h0v-.4l.4-.4h0v-.4l.4-.4h0l.4-.4h0v-.4l.4-.4h0l.4-.4h0l.4-.4h0v-.4l.4-.4h0l.4-.4h0l.4-.4h0l.4-.4h0l.4-.4h0l.4-.4h0l.4-.4h0l.4-.4h0l.4-.4h0l.4-.4h0l.4-.4h.4l.4-.4h0l.4-.4h0l.4-.4h.4l.4-.4h0l.4-.4h.4l.4-.4h.4l.4-.4h.4l.4-.4h.4l.4-.4h.4l.4-.4h.8l.4-.4h.8l.4-.4h.8l.4-.4h1.61l.4-.4h2.41l.4-.4h6.84v.4h2.82v.4h1.61v.4h1.61v.4h1.21v.4h1.21v.4h1.21v.4h.8v.4h.8v.4h.8v.4h.8v.4h.4v.4h.8v.4h.4v.4h.8v.4h.4v.4h.4v.4h.4v.4h.4v.4h.8v.4h.4v.4h.4v.8h.4v.4h.4v.4h.4v.4h.4v.4h.4v.8h.4v.4h.4v.8h.4v.8h.4v.8h.4v.8h.4v.8h.4v1.21h.4v1.21h.4v1.61h.4v2.01h.4v8.85h0l-.4.4v1.61h0l-.4.4v.8h0l-.4.4v.8h0l-.4.4v.8h0l-.4.4v.4h0l-.4.4v.4h0l-.4.4v.4h0l-.4.4h0l-.4.4v.4h0l-.4.4h0l-.4.4v.4h0l-.4.4h0l-.4.4h0l-.4.4v.4h0l-.4.4h0l-.4.4h0l-.4.4h0l-.4.4h0l-.4.4h0l-.4.4h0l-.4.4h0l-.4.4h0l-.4.4h0l-.4.4h0l-.4.4h0l-.4.4h-.4l-.4.4h0l-.4.4h0l-.4.4h0l-.4.4h0l-.4.4h0l-.4.4h0l-.4.4h0l-.4.4h-.4l-.4.4h0l-.4.4h0l-.4.4h0l-.4.4h0l-.4.4h0l-.4.4h0l-.4.4h0l-.4.4h0l-.4.4h0l-.4.4h0l-.4.4h0l-.4.4h0l-.4.4h0l-.4.4v.4h0l-.4.4h0l-.4.4v.4h0l-.4.4v.4h0l-.4.4v.4h0l-.4.4v.4h0l-.4.4v.8h0l-.4.4v1.21h0l-.4.4v1.61h0l-.4.4v8.85h0l-.4.4v.4h0l-.4.4h-.4l-.4.4h0"/>
  <path class="st1" d="M271.28,294.57h-6.43v-.4h-1.21v-.4h-.4v-.4h-.4v-.4h-.4v-2.01h-.4v-4.42l.4-.4h0v-.8l.4-.4h0v-.4l.4-.4h0l.4-.4h.4l.4-.4h.4l.4-.4h5.63v.4h1.21v.4h.4v.4h.4v.4h.4v1.21h.4v6.43h0l-.4.4v.4h0l-.4.4h0l-.4.4h0l-.4.4h-.4l-.4.4h0"/>
  <path class="st1" d="M401.18,294.57h-6.43v-.4h-.8v-.4h-.4v-.4h-.4v-.4h-.4v-1.61h-.4v-4.83l.4-.4h0v-.8l.4-.4h0v-.4l.4-.4h0l.4-.4h.4l.4-.4h.4l.4-.4h5.63v.4h.8v.4h.8v.4h.4v.8h.4v1.61h.4v4.42h0l-.4.4v1.21h0l-.4.4v.4h0l-.4.4h0l-.4.4h-.8l-.4.4h0"/>
  <path class="st1" d="M270.48,314.67h-5.23v-.4h-1.21v-.4h-.8v-.4h-.4v-.8h-.4v-1.61h-.4v-4.02l.4-.4h0v-1.21l.4-.4h0v-.4l.4-.4h0l.4-.4h0l.4-.4h.8l.4-.4h5.63v.4h1.21v.4h.4v.4h.4v.4h.4v.8h.4v6.43h0l-.4.4v.8h0l-.4.4h0l-.4.4h0l-.4.4h-1.21l-.4.4h0"/>
  <path class="st1" d="M400.78,314.67h-5.63v-.4h-1.21v-.4h-.4v-.4h-.4v-.4h-.4v-1.61h-.4v-4.83l.4-.4h0v-.8l.4-.4h0v-.4l.4-.4h0l.4-.4h.4l.4-.4h.8l.4-.4h5.23v.4h.8v.4h.8v.4h.4v.8h.4v1.61h.4v4.42h0l-.4.4v1.21h0l-.4.4v.4h0l-.4.4h-.4l-.4.4h-.8l-.4.4h0"/>
  <path class="st1" d="M269.27,335.19h-3.22v-.4h-1.61v-.4h-.8v-.4h-.4v-.4h-.4v-.4h-.4v-2.01h-.4v-4.02l.4-.4h0v-1.21l.4-.4h0l.4-.4h0l.4-.4h0l.4-.4h0l.4-.4h1.21l.4-.4h4.42v.4h1.21v.4h.8v.4h.4v.8h.4v.8h.4v6.43h0l-.4.4v.4h0l-.4.4v.4h0l-.4.4h-.4l-.4.4h-2.01l-.4.4h0"/>
  <path class="st1" d="M399.58,335.19h-3.22v-.4h-2.01v-.4h-.8v-.4h-.4v-.8h-.4v-1.21h-.4v-5.23l.4-.4h0v-.8l.4-.4h0v-.4l.4-.4h0l.4-.4h.4l.4-.4h.8l.4-.4h4.83v.4h1.21v.4h.8v.8h.4v.4h.4v2.01h.4v4.42h0l-.4.4v1.21h0l-.4.4h0l-.4.4h0l-.4.4h-.4l-.4.4h-1.61l-.4.4h0"/>
  <path class="st1" d="M240.32,395.11v-51.88h-121.86l-.4.4v51.08h.4v.4h.4l.4-.4h120.65v.4h.4"/>
  <path class="st1" d="M270.08,355.29h-4.83v-.4h-1.21v-.4h-.8v-.4h-.4v-.8h-.4v-2.01h-.4v-4.02l.4-.4h0v-.8l.4-.4h0v-.4l.4-.4h0l.4-.4h0l.4-.4h.4l.4-.4h2.01l.4-.4h2.01v.4h2.01v.4h.8v.4h.4v.4h.4v.4h.4v.8h.4v6.43h0l-.4.4v.8h0l-.4.4h0l-.4.4h-.4l-.4.4h-1.21l-.4.4h0"/>
  <path class="st1" d="M399.98,355.29h-4.02v-.4h-1.61v-.4h-.8v-.4h-.4v-.8h-.4v-1.21h-.4v-5.23l.4-.4h0v-.8l.4-.4h0l.4-.4h0l.4-.4h0l.4-.4h.4l.4-.4h2.01l.4-.4h1.61v.4h2.41v.4h.8v.4h.4v.4h.4v.8h.4v1.61h.4v4.42h0l-.4.4v1.21h0l-.4.4v.4h-.4l-.4.4h-.4l-.4.4h-1.21l-.4.4h0"/>
  <path class="st1" d="M335.23,374.2h-9.25v-.4h-.8v-.4h-.4v-.4h-.4v-.4h-.4v-1.21h-.4v-3.62h-.4v-2.41l.4-.4h0v-4.02l.4-.4h0v-.4l.4-.4h0l.4-.4h0l.4-.4h0l.4-.4h.8l.4-.4h8.45v.4h1.21v.4h.4v.4h.4v.4h.4v.8h.4v.8h.4v9.65h0l-.4.4v.8h0l-.4.4h0l-.4.4h0l-.4.4h0l-.4.4h-.8l-.4.4h0"/>
  <path class="st1" d="M270.48,375.4h-5.63v-.4h-1.21v-.4h-.4v-.4h-.4v-.8h-.4v-1.61h-.4v-4.42l.4-.4h0v-1.21l.4-.4h0l.4-.4h0l.4-.4h0l.4-.4h.4l.4-.4h1.61l.4-.4h2.01v.4h2.41v.4h.8v.4h.4v.4h.4v.4h.4v.8h.4v6.43h0l-.4.4v.8h0l-.4.4h0l-.4.4h-.4l-.4.4h-.8l-.4.4h0"/>
  <path class="st1" d="M400.78,375.4h-5.63v-.4h-1.21v-.4h-.4v-.4h-.4v-.4h-.4v-1.61h-.4v-5.23l.4-.4h0v-.8l.4-.4h0l.4-.4h0l.4-.4h0l.4-.4h.4l.4-.4h1.61l.4-.4h2.41v.4h2.01v.4h.8v.4h.4v.4h.4v.4h.4v1.61h.4v5.23h0l-.4.4v.8h0l-.4.4v.4h0l-.4.4h-.4l-.4.4h-.8l-.4.4h0"/>
  <path class="st1" d="M399.58,405.97h-12.87v-.4h-1.21v-.4h-.4v-.4h-.4v-.8h-.4v-6.84l.4-.4h0v-.4l.4-.4h0l.4-.4h0l.4-.4h.4l.4-.4h5.63v-7.64l.4-.4h0v-.8l.4-.4h0l.4-.4h0l.4-.4h0l.4-.4h.4l.4-.4h2.01l.4-.4h2.01v.4h2.01v.4h.8v.4h.4v.4h.4v.4h.4v1.61h.4v13.27h0l-.4.4v1.61h0l-.4.4v.4h0l-.4.4h0l-.4.4v.4h0l-.4.4h-.4l-.4.4h-.4l-.4.4h-.4l-.4.4h0"/>
  <path class="st1" d="M272.49,405.97h-6.03v-.4h-1.21v-.4h-.8v-.4h-.4v-.4h-.4v-.4h-.4v-.8h-.4v-.8h-.4v-2.01h-.4v-12.07l.4-.4h0v-1.61l.4-.4h0v-.4l.4-.4h0l.4-.4h.4l.4-.4h.8l.4-.4h5.23v.4h1.21v.4h.4v.4h.4v.8h.4v2.41h.4v6.84h.4v.4h.4v.8h.4v2.01h.4v3.22h0l-.4.4v2.01h0l-.4.4v.4h0l-.4.4h0l-.4.4h-.8l-.4.4h0"/>
  <path class="st1" d="M332.82,405.97h-6.43v-.4h-1.21v-.4h-.4v-.4h-.4v-.8h-.4v-2.41h-.4v-2.01l.4-.4h0v-2.01l.4-.4h0v-.4l.4-.4h0l.4-.4h0l.4-.4h.8l.4-.4h2.01l.4-.4h1.61v.4h2.41v.4h.8v.4h.4v.4h.4v.4h.4v1.21h.4v5.23h0l-.4.4v1.21h0l-.4.4h0l-.4.4h0l-.4.4h-.8l-.4.4h0"/>
  <path class="st1" d="M292.6,405.97h-6.03v-.4h-1.21v-.4h-.8v-.4h-.4v-.8h-.4v-2.01h-.4v-3.22l.4-.4h0v-1.21l.4-.4h0v-.4l.4-.4h0l.4-.4h0l.4-.4h.8l.4-.4h6.43v.4h.8v.4h.4v.4h.4v.4h.4v1.21h.4v5.63h0l-.4.4v.8h0l-.4.4h0l-.4.4h0l-.4.4h-.8l-.4.4h0"/>
  <path class="st1" d="M312.71,405.97h-6.84v-.4h-.8v-.4h-.4v-.4h-.4v-1.21h-.4v-6.03l.4-.4h0v-.4l.4-.4h0v-.4l.4-.4h.4l.4-.4h.4l.4-.4h6.43v.4h.8v.4h.4v.4h.4v.8h.4v1.21h.4v4.83h0l-.4.4v.8h0l-.4.4v.4h0l-.4.4h0l-.4.4h-.8l-.4.4h0"/>
  <path class="st1" d="M352.92,405.97h-6.43v-.4h-.8v-.4h-.8v-.8h-.4v-1.21h-.4v-5.63l.4-.4h0v-.4l.4-.4h0v-.4l.4-.4h.4l.4-.4h.4l.4-.4h6.43v.4h.8v.4h.4v.4h.4v.8h.4v1.21h.4v4.42h0l-.4.4v1.21h0l-.4.4v.4h0l-.4.4h0l-.4.4h-.8l-.4.4h0"/>
  <path class="st1" d="M373.03,405.97h-6.03v-.4h-1.21v-.4h-.4v-.4h-.4v-.4h-.4v-1.21h-.4v-5.63l.4-.4h0v-.4l.4-.4h0l.4-.4h0l.4-.4h0l.4-.4h.4l.4-.4h6.43v.4h.8v.4h.4v.4h.4v.4h.4v1.61h.4v4.83h0l-.4.4v1.21h0l-.4.4h0l-.4.4h0l-.4.4h-.8l-.4.4h0"/>
</svg>