<?xml version="1.0" encoding="UTF-8"?>
<svg id="Layer_1" xmlns="http://www.w3.org/2000/svg" version="1.1" viewBox="0 0 512 512">
  <!-- Generator: Adobe Illustrator 29.6.1, SVG Export Plug-In . SVG Version: 2.1.1 Build 9)  -->
  <defs>
    <style>
      .st0 {
        fill: none;
        stroke: #b7176c;
        stroke-linecap: round;
        stroke-linejoin: round;
        stroke-width: 5px;
      }
    </style>
  </defs>
  <rect class="st0" x="118.3" y="199.09" width="276.61" height="47.52"/>
  <rect class="st0" x="118.3" y="246.6" width="276.61" height="140.16"/>
  <line class="st0" x1="144.17" y1="246.6" x2="171.05" y2="216.91"/>
  <line class="st0" x1="192.66" y1="246.6" x2="219.54" y2="216.91"/>
  <line class="st0" x1="241.14" y1="246.6" x2="268.02" y2="216.91"/>
  <line class="st0" x1="289.63" y1="246.6" x2="316.51" y2="216.91"/>
  <line class="st0" x1="338.12" y1="246.6" x2="365" y2="216.91"/>
  <line class="st0" x1="208.81" y1="297.27" x2="304.41" y2="297.27"/>
  <line class="st0" x1="179.61" y1="336.1" x2="333.61" y2="336.1"/>
  <g>
    <rect class="st0" x="111.77" y="127.06" width="276.61" height="47.52" transform="translate(-23.06 47.48) rotate(-10.37)"/>
    <line class="st0" x1="135.19" y1="147.69" x2="166.98" y2="172.07"/>
    <line class="st0" x1="182.89" y1="138.96" x2="214.67" y2="163.34"/>
    <line class="st0" x1="230.58" y1="130.24" x2="262.37" y2="154.61"/>
    <line class="st0" x1="278.28" y1="121.51" x2="310.07" y2="145.88"/>
    <line class="st0" x1="325.97" y1="112.78" x2="357.76" y2="137.15"/>
  </g>
</svg>