<?xml version="1.0" encoding="UTF-8"?>
<svg id="Layer_1" xmlns="http://www.w3.org/2000/svg" version="1.1" viewBox="0 0 800 800">
  <!-- Generator: Adobe Illustrator 29.5.1, SVG Export Plug-In . SVG Version: 2.1.0 Build 141)  -->
  <defs>
    <style>
      .st0 {
        fill: none;
        stroke: #fff;
        stroke-linecap: round;
        stroke-linejoin: round;
        stroke-width: 66.67px;
      }
    </style>
  </defs>
  <path class="st0" d="M633.33,100h-333.33c-62.85,0-94.28,0-113.81,19.53-19.53,19.53-19.53,50.95-19.53,113.81v333.33"/>
  <path class="st0" d="M466.67,566.67v66.67c0,36.82,29.85,66.67,66.67,66.67h0c36.82,0,66.67-29.85,66.67-66.67V150c0-27.61,22.39-50,50-50h0c27.61,0,50,22.39,50,50h0c0,27.61-22.39,50-50,50h-33.33"/>
  <path class="st0" d="M533.33,700H166.67c-36.82,0-66.67-29.85-66.67-66.67h0c0-36.82,29.85-66.67,66.67-66.67h300"/>
  <path class="st0" d="M300,233.33h166.67"/>
  <path class="st0" d="M300,366.67h166.67"/>
</svg>